<svg xmlns="http://www.w3.org/2000/svg" width="16" height="16" fill="none" viewBox="0 0 16 16"><path fill="url(#a)" d="M9.365 0c.162 0 .324.135.324.325V3.94l2.535-2.563c.135-.135.35-.135.458 0l1.942 1.942c.108.108.135.324 0 .432v.027l-2.562 2.536h3.614c.188 0 .324.134.324.324v2.725a.313.313 0 0 1-.324.324h-3.614l2.562 2.536c.108.134.135.35 0 .458l-1.942 1.943c-.107.108-.323.134-.431 0h-.027L9.689 12.06v3.615a.31.31 0 0 1-.324.324H6.641a.313.313 0 0 1-.324-.324v-1.889c0-.593.243-1.16.647-1.592l3.506-3.507a.977.977 0 0 0 0-1.376l-3.48-3.48a2.27 2.27 0 0 1-.674-1.592V.324c0-.189.135-.324.324-.324z"/><path fill="url(#b)" d="M3.755 1.403h-.027a.28.28 0 0 0-.215-.101.28.28 0 0 0-.216.1L1.382 3.319a.365.365 0 0 0 0 .46L4.489 7.43a.977.977 0 0 1 0 1.376l-3.108 3.47c-.135.135-.108.324 0 .459l1.915 1.888c.135.135.35.135.459 0L9.66 8.688a.977.977 0 0 0 0-1.376z"/><path fill="url(#c)" d="M4.147 8.098a.816.816 0 1 1-1.633 0 .816.816 0 0 1 1.633 0"/><path fill="url(#d)" d="M1.96 8.098a.98.98 0 1 1-1.96 0 .98.98 0 0 1 1.96 0"/><defs><linearGradient id="a" x1="0" x2="16" y1="8" y2="8" gradientUnits="userSpaceOnUse"><stop stop-color="#006100"/><stop offset=".236" stop-color="#008300"/><stop offset=".911" stop-color="#00b542"/><stop offset="1" stop-color="#00e75d"/></linearGradient><linearGradient id="b" x1="0" x2="16" y1="8" y2="8" gradientUnits="userSpaceOnUse"><stop stop-color="#006100"/><stop offset=".236" stop-color="#008300"/><stop offset=".911" stop-color="#00b542"/><stop offset="1" stop-color="#00e75d"/></linearGradient><linearGradient id="c" x1="0" x2="16" y1="8" y2="8" gradientUnits="userSpaceOnUse"><stop stop-color="#006100"/><stop offset=".236" stop-color="#008300"/><stop offset=".911" stop-color="#00b542"/><stop offset="1" stop-color="#00e75d"/></linearGradient><linearGradient id="d" x1="0" x2="16" y1="8" y2="8" gradientUnits="userSpaceOnUse"><stop stop-color="#006100"/><stop offset=".236" stop-color="#008300"/><stop offset=".911" stop-color="#00b542"/><stop offset="1" stop-color="#00e75d"/></linearGradient></defs></svg>